<svg xmlns="http://www.w3.org/2000/svg" viewBox="0 0 400 300" preserveAspectRatio="xMidYMid slice"><defs><linearGradient id="b" x1="0" y1="0" x2="1" y2="1"><stop offset="0" stop-color="#2b3fc9"/><stop offset="1" stop-color="#8a2fd0"/></linearGradient><radialGradient id="r" cx=".35" cy=".3"><stop offset="0" stop-color="#ff8a8a"/><stop offset="1" stop-color="#c4161c"/></radialGradient></defs><rect width="400" height="300" fill="url(#b)"/><circle cx="130" cy="90" r="52" fill="url(#r)"/><circle cx="112" cy="72" r="12" fill="#fff" opacity=".55"/><circle cx="230" cy="40" r="26" fill="#ffc02e"/><circle cx="335" cy="30" r="30" fill="#3fd04f"/><circle cx="60" cy="30" r="22" fill="#f4a000"/><circle cx="195" cy="108" r="16" fill="#fff2a0"/><path d="M214 100l24-12-8 22 22 4-24 8z" fill="#ffd84a"/><circle cx="310" cy="150" r="58" fill="#4a3fa8"/><circle cx="310" cy="150" r="34" fill="#2a2478"/><circle cx="310" cy="150" r="12" fill="#7a6fe0"/><path d="M220 175L285 120 322 160 262 215Z" fill="#5c52c0"/><path d="M240 190L270 160" stroke="#b9b2ff" stroke-width="6" stroke-linecap="round"/><rect x="0" y="240" width="400" height="60" fill="#1a1060" opacity=".55"/><text x="200" y="282" text-anchor="middle" font-family="Arial Black,Impact,sans-serif" font-size="44" font-weight="900" fill="#ffb52e" stroke="#7a2a00" stroke-width="3" paint-order="stroke">BUBBLE SHOOTER</text></svg>
