<svg xmlns="http://www.w3.org/2000/svg" viewBox="0 0 640 360" preserveAspectRatio="xMidYMid slice"><defs><linearGradient id="bg" x1="0" y1="0" x2="0" y2="1"><stop offset="0" stop-color="#0f2a1f"/><stop offset="1" stop-color="#070b09"/></linearGradient><radialGradient id="gl" cx=".5" cy=".5" r=".5"><stop offset="0" stop-color="#10b981" stop-opacity=".55"/><stop offset="1" stop-color="#10b981" stop-opacity="0"/></radialGradient><linearGradient id="dn" x1="0" y1="0" x2="0" y2="1"><stop offset="0" stop-color="#6ee7b7"/><stop offset="1" stop-color="#10b981"/></linearGradient></defs>
<rect width="640" height="360" fill="url(#bg)"/>
<circle cx="500" cy="90" r="140" fill="url(#gl)"/><circle cx="500" cy="90" r="36" fill="#a7f3d0" opacity=".92"/>
<g fill="#6ee7b7" opacity=".55"><circle cx="70" cy="50" r="2"/><circle cx="150" cy="90" r="1.6"/><circle cx="230" cy="40" r="2"/><circle cx="330" cy="75" r="1.5"/><circle cx="410" cy="35" r="1.8"/><circle cx="600" cy="150" r="1.6"/></g>
<text x="24" y="34" font-family="ui-monospace,Menlo,monospace" font-size="15" font-weight="700" fill="#6ee7b7" opacity=".85">HI 01280</text>
<path d="M0 285Q160 240 320 276T640 262V360H0Z" fill="#0d1f17"/>
<rect y="300" width="640" height="60" fill="#0a1611"/><rect y="299" width="640" height="2" fill="#10b981" opacity=".55"/>
<g stroke="#10b981" stroke-opacity=".25" stroke-width="2" stroke-linecap="round"><path d="M20 326h30M90 340h18M170 328h40M330 334h24M420 326h36M560 338h30"/></g>
<g fill="#10b981"><rect x="468" y="205" width="26" height="98" rx="13"/><rect x="440" y="232" width="16" height="44" rx="8"/><rect x="440" y="262" width="40" height="14" rx="7"/><rect x="506" y="222" width="16" height="40" rx="8"/><rect x="482" y="248" width="40" height="14" rx="7"/></g>
<g fill="#059669"><rect x="562" y="250" width="20" height="53" rx="10"/><rect x="544" y="268" width="14" height="26" rx="7"/><rect x="544" y="282" width="30" height="12" rx="6"/></g>
<g>
<path d="M186 252Q128 262 112 302Q158 284 200 288Z" fill="url(#dn)"/>
<g fill="#059669"><path d="M196 214l14-26 14 24z"/><path d="M224 202l16-28 14 28z"/><path d="M252 196l14-26 12 28z"/></g>
<rect x="215" y="284" width="24" height="24" rx="9" fill="#059669"/><rect x="258" y="284" width="24" height="24" rx="9" fill="#10b981"/>
<ellipse cx="240" cy="250" rx="64" ry="50" fill="url(#dn)"/><ellipse cx="252" cy="268" rx="36" ry="28" fill="#d1fae5" opacity=".9"/>
<circle cx="300" cy="186" r="50" fill="url(#dn)"/><rect x="312" y="190" width="66" height="40" rx="20" fill="#34d399"/>
<path d="M326 218q22 12 44 0" fill="none" stroke="#064e3b" stroke-width="4" stroke-linecap="round"/><circle cx="362" cy="200" r="3" fill="#064e3b"/>
<circle cx="310" cy="172" r="15" fill="#fff"/><circle cx="315" cy="174" r="8" fill="#052e1c"/><circle cx="318" cy="171" r="2.6" fill="#fff"/>
</g></svg>
