<svg xmlns="http://www.w3.org/2000/svg" viewBox="0 0 1200 655" preserveAspectRatio="xMidYMid slice"><defs><linearGradient id="w" x1="0" y1="0" x2="0" y2="1"><stop offset="0" stop-color="#0a1512"/><stop offset="1" stop-color="#04080 6"/></linearGradient><linearGradient id="t" x1="0" y1="0" x2="0" y2="1"><stop offset="0" stop-color="#2a2f2e"/><stop offset="1" stop-color="#121615"/></linearGradient><radialGradient id="g" cx=".5" cy=".5" r=".5"><stop offset="0" stop-color="#10b981" stop-opacity=".5"/><stop offset="1" stop-color="#10b981" stop-opacity="0"/></radialGradient><filter id="b"><feGaussianBlur stdDeviation="8"/></filter></defs>
<rect width="1200" height="655" fill="#060d0a"/>
<ellipse cx="250" cy="260" rx="320" ry="200" fill="url(#g)"/><ellipse cx="1050" cy="200" rx="260" ry="150" fill="url(#g)"/>
<rect x="1020" y="60" width="180" height="8" fill="#34f0b0" filter="url(#b)"/><rect x="1020" y="62" width="180" height="4" fill="#34f0b0"/>
<g fill="#0e1b17" stroke="#10b981" stroke-opacity=".35" stroke-width="2"><path d="M130 90l38 22v44l-38 22-38-22v-44z"/><path d="M210 140l38 22v44l-38 22-38-22v-44z"/><path d="M130 190l38 22v44l-38 22-38-22v-44z"/></g>
<rect y="430" width="1200" height="225" fill="url(#t)"/><rect y="426" width="1200" height="6" fill="#3a403f"/>
<!-- laptop -->
<path d="M230 140h610a14 14 0 0 1 14 14v280H216V154a14 14 0 0 1 14-14z" fill="#1a1f1e"/>
<rect x="234" y="158" width="602" height="262" rx="4" fill="#07130f"/>
<rect x="234" y="158" width="120" height="262" fill="#0b1a15"/><g fill="#2c4a3f"><rect x="246" y="176" width="70" height="7"/><rect x="258" y="194" width="80" height="7"/><rect x="258" y="212" width="60" height="7"/><rect x="246" y="230" width="90" height="7"/><rect x="258" y="248" width="70" height="7"/></g>
<g font-family="monospace" font-size="15"><text x="374" y="190" fill="#34d399">console.log('active');</text><text x="374" y="216" fill="#8be9c1">function initialize_data() {</text><text x="394" y="240" fill="#6ee7b7">var config = {</text><text x="414" y="264" fill="#fbbf24">grid: { color: 'emerald' },</text><text x="414" y="288" fill="#a7f3d0">elements: [ {id: 1, val: 34} ]</text><text x="394" y="312" fill="#6ee7b7">};</text><text x="394" y="336" fill="#8be9c1">process(config);</text><text x="374" y="360" fill="#34d399">}</text><text x="374" y="392" fill="#4b7a69">// end of module...</text></g>
<rect x="150" y="434" width="770" height="26" rx="6" fill="#222827"/><path d="M110 460h850l30 34H80z" fill="#2b3130"/><g fill="#10261e"><rect x="150" y="468" width="690" height="5" rx="2"/><rect x="160" y="478" width="670" height="5" rx="2"/></g>
<!-- phone -->
<rect x="930" y="220" width="190" height="350" rx="30" fill="#0c1210" stroke="#3c4846" stroke-width="5"/><rect x="1000" y="230" width="50" height="10" rx="5" fill="#000"/>
<rect x="946" y="258" width="158" height="296" rx="18" fill="#07130f"/>
<text x="962" y="290" font-family="Arial" font-size="16" font-weight="700" fill="#fff">Dashboard</text><text x="962" y="318" font-family="Arial" font-size="12" fill="#8aa89c">Analytics</text>
<path d="M962 380q20-34 40-8t40-24t40-6" fill="none" stroke="#10e5a0" stroke-width="4"/><path d="M962 380q20-34 40-8t40-24t40-6v52h-120z" fill="#10b981" opacity=".2"/>
<rect x="962" y="424" width="60" height="40" rx="8" fill="#0f2a21"/><rect x="1030" y="424" width="60" height="40" rx="8" fill="#0f2a21"/><rect x="962" y="484" width="128" height="30" rx="15" fill="#10b981"/><text x="1026" y="504" text-anchor="middle" font-family="Arial" font-size="13" font-weight="700" fill="#03120a">Publish</text>
<rect x="1128" y="556" width="14" height="14" fill="#10b981" opacity="0"/>
<!-- play badge -->
<circle cx="1090" cy="170" r="46" fill="#10b981"/><path d="M1076 148l40 22-40 22z" fill="#03120a"/>
<ellipse cx="600" cy="600" rx="560" ry="40" fill="#000" opacity=".35"/>
</svg>
